<svg width="100%" viewBox="0 0 1112 494" role="img" xmlns="http://www.w3.org/2000/svg" font-family="ui-sans-serif, system-ui, -apple-system, Segoe UI, Helvetica, Arial, sans-serif">
<rect width="1112" height="494" fill="#0c1426"/>
<text x="196" y="30" font-size="18" font-weight="700" fill="#eaf1f8">Chromosome painting vs Devon Surprise</text>
<text x="196" y="48" font-size="12" fill="#9bb0c4">teal = shares the donor haplotype &#183; ordered by extent &#183; drawn to SL4.0 scale</text>
<rect x="461.0" y="64" width="110.0" height="386" fill="#ef6a55" opacity="0.12"/>
<text x="516.0" y="60" text-anchor="middle" font-size="11" fill="#f0a08f">EB-9</text>
<line x1="381.0" y1="66" x2="381.0" y2="450" stroke="#243348" stroke-width="1"/>
<text x="381.0" y="466" text-anchor="middle" font-size="11" fill="#7f93a8">62 Mb</text>
<line x1="581.0" y1="66" x2="581.0" y2="450" stroke="#243348" stroke-width="1"/>
<text x="581.0" y="466" text-anchor="middle" font-size="11" fill="#7f93a8">63 Mb</text>
<line x1="781.0" y1="66" x2="781.0" y2="450" stroke="#243348" stroke-width="1"/>
<text x="781.0" y="466" text-anchor="middle" font-size="11" fill="#7f93a8">64 Mb</text>
<line x1="981.0" y1="66" x2="981.0" y2="450" stroke="#243348" stroke-width="1"/>
<text x="981.0" y="466" text-anchor="middle" font-size="11" fill="#7f93a8">65 Mb</text>
<rect x="196" y="72.5" width="820" height="14.0" fill="#1d2c44" opacity="0.5"/>
<rect x="196.0" y="72.5" width="800.0" height="14.0" fill="#2dd4bf"/>
<circle cx="10" cy="79.5" r="3.5" fill="#2dd4bf"/>
<text x="186" y="83.5" text-anchor="end" font-size="12" fill="#cdd9e6">Devon Surprise</text>
<text x="1026" y="83.5" font-size="11" fill="#7f93a8">98%</text>
<rect x="196" y="91.5" width="820" height="14.0" fill="#1d2c44" opacity="0.5"/>
<rect x="196.0" y="91.5" width="320.0" height="14.0" fill="#2dd4bf"/>
<rect x="676.0" y="91.5" width="280.0" height="14.0" fill="#2dd4bf"/>
<rect x="976.0" y="91.5" width="20.0" height="14.0" fill="#2dd4bf"/>
<text x="186" y="102.5" text-anchor="end" font-size="12" fill="#cdd9e6">Ailsa Craig (LA2838A)</text>
<text x="1026" y="102.5" font-size="11" fill="#7f93a8">76%</text>
<rect x="196" y="110.5" width="820" height="14.0" fill="#1d2c44" opacity="0.5"/>
<rect x="196.0" y="110.5" width="500.0" height="14.0" fill="#2dd4bf"/>
<rect x="936.0" y="110.5" width="20.0" height="14.0" fill="#2dd4bf"/>
<rect x="976.0" y="110.5" width="20.0" height="14.0" fill="#2dd4bf"/>
<circle cx="10" cy="117.5" r="3.5" fill="#2dd4bf"/>
<text x="186" y="121.5" text-anchor="end" font-size="12" fill="#cdd9e6">Cambell 1943</text>
<text x="1026" y="121.5" font-size="11" fill="#7f93a8">66%</text>
<rect x="196" y="129.5" width="820" height="14.0" fill="#1d2c44" opacity="0.5"/>
<rect x="196.0" y="129.5" width="500.0" height="14.0" fill="#2dd4bf"/>
<rect x="936.0" y="129.5" width="20.0" height="14.0" fill="#2dd4bf"/>
<rect x="976.0" y="129.5" width="20.0" height="14.0" fill="#2dd4bf"/>
<circle cx="10" cy="136.5" r="3.5" fill="#2dd4bf"/>
<text x="186" y="140.5" text-anchor="end" font-size="12" fill="#cdd9e6">NC EBR 2</text>
<text x="1026" y="140.5" font-size="11" fill="#7f93a8">66%</text>
<rect x="196" y="148.5" width="820" height="14.0" fill="#1d2c44" opacity="0.5"/>
<rect x="196.0" y="148.5" width="360.0" height="14.0" fill="#2dd4bf"/>
<rect x="616.0" y="148.5" width="80.0" height="14.0" fill="#2dd4bf"/>
<rect x="936.0" y="148.5" width="20.0" height="14.0" fill="#2dd4bf"/>
<rect x="976.0" y="148.5" width="20.0" height="14.0" fill="#2dd4bf"/>
<circle cx="10" cy="155.5" r="3.5" fill="#2dd4bf"/>
<text x="186" y="159.5" text-anchor="end" font-size="12" fill="#cdd9e6">CU191357</text>
<text x="1026" y="159.5" font-size="11" fill="#7f93a8">59%</text>
<rect x="196" y="167.5" width="820" height="14.0" fill="#1d2c44" opacity="0.5"/>
<rect x="196.0" y="167.5" width="260.0" height="14.0" fill="#2dd4bf"/>
<rect x="476.0" y="167.5" width="80.0" height="14.0" fill="#2dd4bf"/>
<rect x="616.0" y="167.5" width="80.0" height="14.0" fill="#2dd4bf"/>
<rect x="936.0" y="167.5" width="20.0" height="14.0" fill="#2dd4bf"/>
<rect x="976.0" y="167.5" width="20.0" height="14.0" fill="#2dd4bf"/>
<circle cx="10" cy="174.5" r="3.5" fill="#2dd4bf"/>
<text x="186" y="178.5" text-anchor="end" font-size="12" fill="#cdd9e6">CU151011-146</text>
<text x="1026" y="178.5" font-size="11" fill="#7f93a8">56%</text>
<rect x="196" y="186.5" width="820" height="14.0" fill="#1d2c44" opacity="0.5"/>
<rect x="196.0" y="186.5" width="20.0" height="14.0" fill="#2dd4bf"/>
<rect x="256.0" y="186.5" width="60.0" height="14.0" fill="#2dd4bf"/>
<rect x="336.0" y="186.5" width="220.0" height="14.0" fill="#2dd4bf"/>
<rect x="616.0" y="186.5" width="80.0" height="14.0" fill="#2dd4bf"/>
<rect x="936.0" y="186.5" width="20.0" height="14.0" fill="#2dd4bf"/>
<rect x="976.0" y="186.5" width="20.0" height="14.0" fill="#2dd4bf"/>
<circle cx="10" cy="193.5" r="3.5" fill="#2dd4bf"/>
<text x="186" y="197.5" text-anchor="end" font-size="12" fill="#cdd9e6">CU201041</text>
<text x="1026" y="197.5" font-size="11" fill="#7f93a8">51%</text>
<rect x="196" y="205.5" width="820" height="14.0" fill="#1d2c44" opacity="0.5"/>
<rect x="196.0" y="205.5" width="20.0" height="14.0" fill="#2dd4bf"/>
<rect x="256.0" y="205.5" width="60.0" height="14.0" fill="#2dd4bf"/>
<rect x="356.0" y="205.5" width="20.0" height="14.0" fill="#2dd4bf"/>
<rect x="436.0" y="205.5" width="20.0" height="14.0" fill="#2dd4bf"/>
<rect x="476.0" y="205.5" width="80.0" height="14.0" fill="#2dd4bf"/>
<rect x="596.0" y="205.5" width="40.0" height="14.0" fill="#2dd4bf"/>
<rect x="656.0" y="205.5" width="40.0" height="14.0" fill="#2dd4bf"/>
<rect x="936.0" y="205.5" width="20.0" height="14.0" fill="#2dd4bf"/>
<rect x="976.0" y="205.5" width="20.0" height="14.0" fill="#2dd4bf"/>
<circle cx="10" cy="212.5" r="3.5" fill="#2dd4bf"/>
<text x="186" y="216.5" text-anchor="end" font-size="12" fill="#cdd9e6">NC 1 CELBR B</text>
<text x="1026" y="216.5" font-size="11" fill="#7f93a8">39%</text>
<rect x="196" y="224.5" width="820" height="14.0" fill="#1d2c44" opacity="0.5"/>
<rect x="196.0" y="224.5" width="120.0" height="14.0" fill="#2dd4bf"/>
<rect x="356.0" y="224.5" width="20.0" height="14.0" fill="#2dd4bf"/>
<rect x="436.0" y="224.5" width="120.0" height="14.0" fill="#2dd4bf"/>
<rect x="936.0" y="224.5" width="20.0" height="14.0" fill="#2dd4bf"/>
<rect x="976.0" y="224.5" width="20.0" height="14.0" fill="#2dd4bf"/>
<circle cx="10" cy="231.5" r="3.5" fill="#2dd4bf"/>
<text x="186" y="235.5" text-anchor="end" font-size="12" fill="#cdd9e6">CU151095-146</text>
<text x="1026" y="235.5" font-size="11" fill="#7f93a8">37%</text>
<rect x="196" y="243.5" width="820" height="14.0" fill="#1d2c44" opacity="0.5"/>
<rect x="256.0" y="243.5" width="60.0" height="14.0" fill="#2dd4bf"/>
<rect x="476.0" y="243.5" width="120.0" height="14.0" fill="#2dd4bf"/>
<rect x="656.0" y="243.5" width="40.0" height="14.0" fill="#2dd4bf"/>
<rect x="936.0" y="243.5" width="20.0" height="14.0" fill="#2dd4bf"/>
<rect x="976.0" y="243.5" width="20.0" height="14.0" fill="#2dd4bf"/>
<circle cx="10" cy="250.5" r="3.5" fill="#2dd4bf"/>
<text x="186" y="254.5" text-anchor="end" font-size="12" fill="#cdd9e6">NC 1 CELBR A</text>
<text x="1026" y="254.5" font-size="11" fill="#7f93a8">32%</text>
<rect x="196" y="262.5" width="820" height="14.0" fill="#1d2c44" opacity="0.5"/>
<rect x="256.0" y="262.5" width="60.0" height="14.0" fill="#2dd4bf"/>
<rect x="356.0" y="262.5" width="40.0" height="14.0" fill="#2dd4bf"/>
<rect x="416.0" y="262.5" width="20.0" height="14.0" fill="#2dd4bf"/>
<rect x="756.0" y="262.5" width="100.0" height="14.0" fill="#2dd4bf"/>
<rect x="936.0" y="262.5" width="20.0" height="14.0" fill="#2dd4bf"/>
<rect x="976.0" y="262.5" width="20.0" height="14.0" fill="#2dd4bf"/>
<text x="186" y="273.5" text-anchor="end" font-size="12" fill="#cdd9e6">Heinz 1706</text>
<text x="1026" y="273.5" font-size="11" fill="#7f93a8">32%</text>
<rect x="196" y="281.5" width="820" height="14.0" fill="#1d2c44" opacity="0.5"/>
<rect x="256.0" y="281.5" width="60.0" height="14.0" fill="#2dd4bf"/>
<rect x="336.0" y="281.5" width="100.0" height="14.0" fill="#2dd4bf"/>
<rect x="816.0" y="281.5" width="20.0" height="14.0" fill="#2dd4bf"/>
<rect x="936.0" y="281.5" width="20.0" height="14.0" fill="#2dd4bf"/>
<rect x="976.0" y="281.5" width="20.0" height="14.0" fill="#2dd4bf"/>
<text x="186" y="292.5" text-anchor="end" font-size="12" fill="#cdd9e6">Marglobe (LA0502)</text>
<text x="1026" y="292.5" font-size="11" fill="#7f93a8">27%</text>
<rect x="196" y="300.5" width="820" height="14.0" fill="#1d2c44" opacity="0.5"/>
<rect x="256.0" y="300.5" width="20.0" height="14.0" fill="#2dd4bf"/>
<rect x="356.0" y="300.5" width="40.0" height="14.0" fill="#2dd4bf"/>
<rect x="416.0" y="300.5" width="20.0" height="14.0" fill="#2dd4bf"/>
<rect x="816.0" y="300.5" width="40.0" height="14.0" fill="#2dd4bf"/>
<rect x="936.0" y="300.5" width="20.0" height="14.0" fill="#2dd4bf"/>
<rect x="976.0" y="300.5" width="20.0" height="14.0" fill="#2dd4bf"/>
<text x="186" y="311.5" text-anchor="end" font-size="12" fill="#cdd9e6">Hawaii 7998</text>
<text x="1026" y="311.5" font-size="11" fill="#7f93a8">20%</text>
<rect x="196" y="319.5" width="820" height="14.0" fill="#1d2c44" opacity="0.5"/>
<rect x="756.0" y="319.5" width="100.0" height="14.0" fill="#2dd4bf"/>
<rect x="936.0" y="319.5" width="20.0" height="14.0" fill="#2dd4bf"/>
<rect x="976.0" y="319.5" width="20.0" height="14.0" fill="#2dd4bf"/>
<text x="186" y="330.5" text-anchor="end" font-size="12" fill="#cdd9e6">Yellow Pear</text>
<text x="1026" y="330.5" font-size="11" fill="#7f93a8">17%</text>
<rect x="196" y="338.5" width="820" height="14.0" fill="#1d2c44" opacity="0.5"/>
<rect x="256.0" y="338.5" width="20.0" height="14.0" fill="#2dd4bf"/>
<rect x="356.0" y="338.5" width="40.0" height="14.0" fill="#2dd4bf"/>
<rect x="416.0" y="338.5" width="20.0" height="14.0" fill="#2dd4bf"/>
<rect x="936.0" y="338.5" width="20.0" height="14.0" fill="#2dd4bf"/>
<rect x="976.0" y="338.5" width="20.0" height="14.0" fill="#2dd4bf"/>
<text x="186" y="349.5" text-anchor="end" font-size="12" fill="#cdd9e6">M82</text>
<text x="1026" y="349.5" font-size="11" fill="#7f93a8">15%</text>
<rect x="196" y="357.5" width="820" height="14.0" fill="#1d2c44" opacity="0.5"/>
<rect x="256.0" y="357.5" width="60.0" height="14.0" fill="#2dd4bf"/>
<rect x="936.0" y="357.5" width="20.0" height="14.0" fill="#2dd4bf"/>
<rect x="976.0" y="357.5" width="20.0" height="14.0" fill="#2dd4bf"/>
<circle cx="10" cy="364.5" r="3.5" fill="#ef6a55"/>
<text x="186" y="368.5" text-anchor="end" font-size="12" fill="#cdd9e6">NC EBR 1</text>
<text x="1026" y="368.5" font-size="11" fill="#7f93a8">12%</text>
<rect x="196" y="376.5" width="820" height="14.0" fill="#1d2c44" opacity="0.5"/>
<rect x="256.0" y="376.5" width="60.0" height="14.0" fill="#2dd4bf"/>
<rect x="936.0" y="376.5" width="20.0" height="14.0" fill="#2dd4bf"/>
<rect x="976.0" y="376.5" width="20.0" height="14.0" fill="#2dd4bf"/>
<circle cx="10" cy="383.5" r="3.5" fill="#ef6a55"/>
<text x="186" y="387.5" text-anchor="end" font-size="12" fill="#cdd9e6">Brandywine</text>
<text x="1026" y="387.5" font-size="11" fill="#7f93a8">12%</text>
<rect x="196" y="395.5" width="820" height="14.0" fill="#1d2c44" opacity="0.5"/>
<rect x="256.0" y="395.5" width="20.0" height="14.0" fill="#2dd4bf"/>
<rect x="356.0" y="395.5" width="40.0" height="14.0" fill="#2dd4bf"/>
<rect x="416.0" y="395.5" width="20.0" height="14.0" fill="#2dd4bf"/>
<rect x="976.0" y="395.5" width="20.0" height="14.0" fill="#2dd4bf"/>
<text x="186" y="406.5" text-anchor="end" font-size="12" fill="#cdd9e6">OH08-7663</text>
<text x="1026" y="406.5" font-size="11" fill="#7f93a8">12%</text>
<rect x="196" y="414.5" width="820" height="14.0" fill="#1d2c44" opacity="0.5"/>
<rect x="256.0" y="414.5" width="20.0" height="14.0" fill="#2dd4bf"/>
<rect x="356.0" y="414.5" width="20.0" height="14.0" fill="#2dd4bf"/>
<rect x="936.0" y="414.5" width="20.0" height="14.0" fill="#2dd4bf"/>
<rect x="976.0" y="414.5" width="20.0" height="14.0" fill="#2dd4bf"/>
<circle cx="10" cy="421.5" r="3.5" fill="#ef6a55"/>
<text x="186" y="425.5" text-anchor="end" font-size="12" fill="#cdd9e6">NC 84173</text>
<text x="1026" y="425.5" font-size="11" fill="#7f93a8">10%</text>
<rect x="196" y="433.5" width="820" height="14.0" fill="#1d2c44" opacity="0.5"/>
<text x="186" y="444.5" text-anchor="end" font-size="12" fill="#cdd9e6">PI 126445</text>
<text x="1026" y="444.5" font-size="11" fill="#7f93a8">0%</text>
<circle cx="202" cy="476" r="3.5" fill="#2dd4bf"/><text x="212" y="480" font-size="11" fill="#9bb0c4">resistant pedigree</text>
<circle cx="346" cy="476" r="3.5" fill="#ef6a55"/><text x="356" y="480" font-size="11" fill="#9bb0c4">susceptible control</text>
</svg>