<svg width="100%" viewBox="0 0 1040 367" role="img" xmlns="http://www.w3.org/2000/svg" font-family="ui-sans-serif, system-ui, -apple-system, Segoe UI, Helvetica, Arial, sans-serif">
<rect width="1040" height="367" fill="#0c1426"/>
<text x="168" y="30" font-size="18" font-weight="700" fill="#eaf1f8">Fine-mapping EB-9 with a phenotyped recombinant</text>
<text x="168" y="48" font-size="12" fill="#9bb0c4">SL4.0ch09 · teal = shares the Devon Surprise haplotype · disease = mean % stem lesion (in planta)</text>
<line x1="175.4" y1="66" x2="880.3" y2="66" stroke="#5b6b7e" stroke-width="2"/>
<line x1="175.4" y1="62" x2="175.4" y2="70" stroke="#5b6b7e" stroke-width="2"/>
<line x1="880.3" y1="62" x2="880.3" y2="70" stroke="#5b6b7e" stroke-width="2"/>
<text x="888.3" y="70" font-size="11" fill="#5b6b7e" font-weight="400">Prior EB-9 · 1.86 Mb</text>
<line x1="415.4" y1="83" x2="623.8" y2="83" stroke="#cf9b5b" stroke-width="2"/>
<line x1="415.4" y1="79" x2="415.4" y2="87" stroke="#cf9b5b" stroke-width="2"/>
<line x1="623.8" y1="79" x2="623.8" y2="87" stroke="#cf9b5b" stroke-width="2"/>
<text x="631.8" y="87" font-size="11" fill="#cf9b5b" font-weight="400">Paper · 70.4%</text>
<line x1="471.2" y1="100" x2="603.8" y2="100" stroke="#2dd4bf" stroke-width="3"/>
<line x1="471.2" y1="96" x2="471.2" y2="104" stroke="#2dd4bf" stroke-width="3"/>
<line x1="603.8" y1="96" x2="603.8" y2="104" stroke="#2dd4bf" stroke-width="3"/>
<text x="611.8" y="104" font-size="11" fill="#2dd4bf" font-weight="700">Refined · 81.2%</text>
<rect x="471.2" y="128" width="132.6" height="135" fill="#2dd4bf" opacity="0.07"/>
<line x1="471.2" y1="122" x2="471.2" y2="267" stroke="#3a4d63" stroke-width="1" stroke-dasharray="3 3"/>
<text x="471.2" y="281" text-anchor="middle" font-size="10" fill="#7f93a8">62.60 Mb</text>
<line x1="603.8" y1="122" x2="603.8" y2="267" stroke="#3a4d63" stroke-width="1" stroke-dasharray="3 3"/>
<text x="603.8" y="281" text-anchor="middle" font-size="10" fill="#7f93a8">62.95 Mb</text>
<rect x="168" y="132.0" width="720" height="19.0" fill="#1d2c44" opacity="0.5"/>
<rect x="168.0" y="132.0" width="720.0" height="19.0" fill="#2dd4bf"/>
<circle cx="14" cy="141.5" r="4" fill="#2dd4bf"/>
<text x="26" y="145.5" font-size="12.5" fill="#e6eef6">Devon Surprise</text>
<text x="898" y="141.5" font-size="11" fill="#2dd4bf" font-weight="500">R · 0.3%</text>
<text x="898" y="154.5" font-size="9.5" fill="#7f93a8">donor</text>
<rect x="168" y="159.0" width="720" height="19.0" fill="#1d2c44" opacity="0.5"/>
<rect x="177.5" y="159.0" width="378.9" height="19.0" fill="#2dd4bf"/>
<rect x="708.0" y="159.0" width="113.7" height="19.0" fill="#2dd4bf"/>
<circle cx="14" cy="168.5" r="4" fill="#2dd4bf"/>
<text x="26" y="172.5" font-size="12.5" fill="#e6eef6">CU201041</text>
<text x="898" y="168.5" font-size="11" fill="#2dd4bf" font-weight="500">R · 0.5%</text>
<text x="898" y="181.5" font-size="9.5" fill="#7f93a8">resistant pedigree</text>
<rect x="0" y="183.0" width="1040" height="25.0" fill="#ffffff" opacity="0.045"/>
<rect x="168" y="186.0" width="720" height="19.0" fill="#1d2c44" opacity="0.5"/>
<rect x="168.0" y="186.0" width="312.7" height="19.0" fill="#2dd4bf"/>
<rect x="821.7" y="186.0" width="66.3" height="19.0" fill="#2dd4bf"/>
<circle cx="14" cy="195.5" r="4" fill="#ef6a55"/>
<text x="26" y="199.5" font-size="12.5" fill="#e6eef6">Ailsa Craig</text>
<text x="898" y="195.5" font-size="11" fill="#ef6a55" font-weight="500">S · 32.7%</text>
<text x="898" y="208.5" font-size="9.5" fill="#7f93a8">susceptible recombinant</text>
<rect x="0" y="210.0" width="1040" height="25.0" fill="#ffffff" opacity="0.045"/>
<rect x="168" y="213.0" width="720" height="19.0" fill="#1d2c44" opacity="0.5"/>
<rect x="215.4" y="213.0" width="37.9" height="19.0" fill="#2dd4bf"/>
<rect x="329.1" y="213.0" width="5.0" height="19.0" fill="#2dd4bf"/>
<rect x="442.8" y="213.0" width="37.9" height="19.0" fill="#2dd4bf"/>
<circle cx="14" cy="222.5" r="4" fill="#2dd4bf"/>
<text x="26" y="226.5" font-size="12.5" fill="#e6eef6">BGV007871</text>
<text x="898" y="222.5" font-size="11" fill="#2dd4bf" font-weight="500">R · 0.1%</text>
<text x="898" y="235.5" font-size="9.5" fill="#7f93a8">resistant — same haplotype</text>
<rect x="168" y="240.0" width="720" height="19.0" fill="#1d2c44" opacity="0.5"/>
<rect x="215.4" y="240.0" width="5.0" height="19.0" fill="#2dd4bf"/>
<circle cx="14" cy="249.5" r="4" fill="#ef6a55"/>
<text x="26" y="253.5" font-size="12.5" fill="#e6eef6">NC 84173</text>
<text x="898" y="249.5" font-size="11" fill="#ef6a55" font-weight="500">S · 42.0%</text>
<text x="898" y="262.5" font-size="9.5" fill="#7f93a8">susceptible control</text>
<text x="168" y="305" font-size="11" fill="#9bb0c4"><tspan fill="#ef6a55" font-weight="700">Left edge → 62.60 Mb:</tspan> Ailsa Craig is susceptible (32.7%) yet carries the donor to here — the left flank isn’t sufficient (robust; SNP refine agrees).</text>
<text x="168" y="323" font-size="11" fill="#9bb0c4"><tspan fill="#cf9b5b" font-weight="700">Right edge held at 62.95 Mb:</tspan> BGV007871 has Ailsa’s haplotype but is resistant — resistant recombinants are confounded, so the right can’t be trimmed.</text>
<text x="168" y="341" font-size="9.5" fill="#6b7e8c">Bars mark shared 250 kb windows by center; interval brackets use the paper’s window-coverage convention (edges ±~125 kb).</text>
</svg>